HIERARCHY
ROOT hips
{
  OFFSET 0 10.6860622 2.3727825e-15
  CHANNELS 6 Xposition Yposition Zposition Yrotation Xrotation Zrotation
  JOINT leftUpperLeg
  {
    OFFSET 0.6642549969 -0.9402397400000004 0
    CHANNELS 3 Yrotation Xrotation Zrotation
    JOINT leftLowerLeg
    {
      OFFSET 0 -3.997221335632195 0
      CHANNELS 3 Yrotation Xrotation Zrotation
      JOINT leftFoot
      {
        OFFSET -0.13777839790000004 -4.6145792000000005 -0.22186036399999998
        CHANNELS 3 Yrotation Xrotation Zrotation
        JOINT leftToes
        {
          OFFSET -0.03777410834999995 -0.9130806927000008 0.85230013
          CHANNELS 3 Yrotation Xrotation Zrotation
          End Site
          {
            OFFSET -0.03777410834999995 -0.9130806927000008 0.85230013
          }
        }
      }
    }
  }
  JOINT rightUpperLeg
  {
    OFFSET -0.6642778626 -0.9402397400000004 0
    CHANNELS 3 Yrotation Xrotation Zrotation
    JOINT rightLowerLeg
    {
      OFFSET 0 -3.997221452859387 0
      CHANNELS 3 Yrotation Xrotation Zrotation
      JOINT rightFoot
      {
        OFFSET 0.1377926176 -4.6145792000000005 -0.22185782299999995
        CHANNELS 3 Yrotation Xrotation Zrotation
        JOINT rightToes
        {
          OFFSET 0.037780746850000047 -0.9130806927000008 0.85230167
          CHANNELS 3 Yrotation Xrotation Zrotation
          End Site
          {
            OFFSET 0.037780746850000047 -0.9130806927000008 0.85230167
          }
        }
      }
    }
  }
  JOINT spine
  {
    OFFSET 0 0.13988381660000015 0
    CHANNELS 3 Yrotation Xrotation Zrotation
    JOINT chest
    {
      OFFSET 0 0.6191039003973773 0
      CHANNELS 3 Yrotation Xrotation Zrotation
      JOINT upperChest
      {
        OFFSET 0 0.9855186130586943 0
        CHANNELS 3 Yrotation Xrotation Zrotation
        JOINT leftShoulder
        {
          OFFSET 0.1807663869 1.5087829790000005 0
          CHANNELS 3 Yrotation Xrotation Zrotation
          JOINT leftUpperArm
          {
            OFFSET 0.5985063006419806 0 0
            CHANNELS 3 Yrotation Xrotation Zrotation
            JOINT leftLowerArm
            {
              OFFSET 2.2993332369501065 0 0
              CHANNELS 3 Yrotation Xrotation Zrotation
              JOINT leftHand
              {
                OFFSET 2.395047042602395 0 0
                CHANNELS 3 Yrotation Xrotation Zrotation
                JOINT leftIndexProximal
                {
                  OFFSET 0.5766295810000004 0.04556643899499946 0.17265095988184
                  CHANNELS 3 Yrotation Xrotation Zrotation
                  JOINT leftIndexIntermediate
                  {
                    OFFSET 0.2957229000000008 -0.019352197700001517 -0.007932640616999987
                    CHANNELS 3 Yrotation Xrotation Zrotation
                    JOINT leftIndexDistal
                    {
                      OFFSET 0.19008243099999922 -0.012484908149998475 -0.002786250786000012
                      CHANNELS 3 Yrotation Xrotation Zrotation
                      End Site
                      {
                        OFFSET 0.19008243099999922 -0.012484908149998475 -0.002786250786000012
                      }
                    }
                  }
                }
                JOINT leftMiddleProximal
                {
                  OFFSET 0.5834975091000001 0.0524350405149987 0.02204081888183999
                  CHANNELS 3 Yrotation Xrotation Zrotation
                  JOINT leftMiddleIntermediate
                  {
                    OFFSET 0.33880573540000003 -0.019871473270000717 -0.00000971183179999946
                    CHANNELS 3 Yrotation Xrotation Zrotation
                    JOINT leftMiddleDistal
                    {
                      OFFSET 0.20676022730000088 -0.012221336379999448 0.0001471936708000235
                      CHANNELS 3 Yrotation Xrotation Zrotation
                      End Site
                      {
                        OFFSET 0.20676022730000088 -0.012221336379999448 0.0001471936708000235
                      }
                    }
                  }
                }
                JOINT leftLittleProximal
                {
                  OFFSET 0.5344154683999995 -0.012880921405001189 -0.24414037221816004
                  CHANNELS 3 Yrotation Xrotation Zrotation
                  JOINT leftLittleIntermediate
                  {
                    OFFSET 0.21758961730000093 -0.011650919939999227 0.011893592810000034
                    CHANNELS 3 Yrotation Xrotation Zrotation
                    JOINT leftLittleDistal
                    {
                      OFFSET 0.1475273964999999 -0.008152365682999818 0.006001092492999946
                      CHANNELS 3 Yrotation Xrotation Zrotation
                      End Site
                      {
                        OFFSET 0.1475273964999999 -0.008152365682999818 0.006001092492999946
                      }
                    }
                  }
                }
                JOINT leftRingProximal
                {
                  OFFSET 0.5799399463000003 0.026911854694997794 -0.12150566991816003
                  CHANNELS 3 Yrotation Xrotation Zrotation
                  JOINT leftRingIntermediate
                  {
                    OFFSET 0.26167887460000006 -0.013480186499999602 0.010996293000000053
                    CHANNELS 3 Yrotation Xrotation Zrotation
                    JOINT leftRingDistal
                    {
                      OFFSET 0.17667108799999987 -0.008990287899999228 0.0055541023999999065
                      CHANNELS 3 Yrotation Xrotation Zrotation
                      End Site
                      {
                        OFFSET 0.17667108799999987 -0.008990287899999228 0.0055541023999999065
                      }
                    }
                  }
                }
                JOINT leftThumbProximal
                {
                  OFFSET 0.11018806699999972 -0.09448718900500053 0.17047963138184
                  CHANNELS 3 Yrotation Xrotation Zrotation
                  JOINT leftThumbIntermediate
                  {
                    OFFSET 0.31062601459999983 -0.08126270900000132 0.15443142000000007
                    CHANNELS 3 Yrotation Xrotation Zrotation
                    JOINT leftThumbDistal
                    {
                      OFFSET 0.21627175790000086 -0.08833193599999878 0.018771167799999988
                      CHANNELS 3 Yrotation Xrotation Zrotation
                      End Site
                      {
                        OFFSET 0.21627175790000086 -0.08833193599999878 0.018771167799999988
                      }
                    }
                  }
                }
              }
            }
          }
        }
        JOINT neck
        {
          OFFSET 0 1.5463305265074576 0
          CHANNELS 3 Yrotation Xrotation Zrotation
          JOINT head
          {
            OFFSET 0 0.8456443600000344 0
            CHANNELS 3 Yrotation Xrotation Zrotation
            JOINT leftEye
            {
              OFFSET 0.30408573140000006 0.5104519199999995 0.1276382305
              CHANNELS 3 Yrotation Xrotation Zrotation
              End Site
              {
                OFFSET 0.30408573140000006 0.5104519199999995 0.1276382305
              }
            }
            JOINT rightEye
            {
              OFFSET -0.30409491089999996 0.5104519199999995 0.1276379445
              CHANNELS 3 Yrotation Xrotation Zrotation
              End Site
              {
                OFFSET -0.30409491089999996 0.5104519199999995 0.1276379445
              }
            }
            JOINT jaw
            {
              OFFSET -3.155239131000001e-7 -0.11984121820000082 0.60178107
              CHANNELS 3 Yrotation Xrotation Zrotation
              End Site
              {
                OFFSET -3.155239131000001e-7 -0.11984121820000082 0.60178107
              }
            }
          }
        }
        JOINT rightShoulder
        {
          OFFSET -0.1807303465 1.5087829790000005 0
          CHANNELS 3 Yrotation Xrotation Zrotation
          JOINT rightUpperArm
          {
            OFFSET -0.5985063796536958 0 0
            CHANNELS 3 Yrotation Xrotation Zrotation
            JOINT rightLowerArm
            {
              OFFSET -2.2993322059002854 0 0
              CHANNELS 3 Yrotation Xrotation Zrotation
              JOINT rightHand
              {
                OFFSET -2.395045314457259 0 0
                CHANNELS 3 Yrotation Xrotation Zrotation
                JOINT rightIndexProximal
                {
                  OFFSET -0.5764487688300002 0.0441371204405987 0.17361932004999997
                  CHANNELS 3 Yrotation Xrotation Zrotation
                  JOINT rightIndexIntermediate
                  {
                    OFFSET -0.29573011380000047 -0.01934826376999843 -0.007698921482999974
                    CHANNELS 3 Yrotation Xrotation Zrotation
                    JOINT rightIndexDistal
                    {
                      OFFSET -0.19008373999999884 -0.012503266380000655 -0.0026365778999999897
                      CHANNELS 3 Yrotation Xrotation Zrotation
                      End Site
                      {
                        OFFSET -0.19008373999999884 -0.012503266380000655 -0.0026365778999999897
                      }
                    }
                  }
                }
                JOINT rightMiddleProximal
                {
                  OFFSET -0.5834852037300005 0.05211639405060153 0.02307162440000001
                  CHANNELS 3 Yrotation Xrotation Zrotation
                  JOINT rightMiddleIntermediate
                  {
                    OFFSET -0.33880114510000003 -0.019952774050000954 0.0002455003561999819
                    CHANNELS 3 Yrotation Xrotation Zrotation
                    JOINT rightMiddleDistal
                    {
                      OFFSET -0.20675694929999955 -0.012273788999999091 0.00030209124000002766
                      CHANNELS 3 Yrotation Xrotation Zrotation
                      End Site
                      {
                        OFFSET -0.20675694929999955 -0.012273788999999091 0.00030209124000002766
                      }
                    }
                  }
                }
                JOINT rightLittleProximal
                {
                  OFFSET -0.5346811737299992 -0.011214256288399227 -0.24363941305000003
                  CHANNELS 3 Yrotation Xrotation Zrotation
                  JOINT rightLittleIntermediate
                  {
                    OFFSET -0.21757715980000092 -0.011771559690000988 0.01201554387
                    CHANNELS 3 Yrotation Xrotation Zrotation
                    JOINT rightLittleDistal
                    {
                      OFFSET -0.1475201849000004 -0.00822055339600003 0.006082065407000015
                      CHANNELS 3 Yrotation Xrotation Zrotation
                      End Site
                      {
                        OFFSET -0.1475201849000004 -0.00822055339600003 0.006082065407000015
                      }
                    }
                  }
                }
                JOINT rightRingProximal
                {
                  OFFSET -0.5800810755299999 0.027657985680600072 -0.12066365025000003
                  CHANNELS 3 Yrotation Xrotation Zrotation
                  JOINT rightRingIntermediate
                  {
                    OFFSET -0.26166445029999974 -0.013623118409999302 0.011164098990000045
                    CHANNELS 3 Yrotation Xrotation Zrotation
                    JOINT rightRingDistal
                    {
                      OFFSET -0.17666387530000027 -0.009072900100000503 0.005668185599999959
                      CHANNELS 3 Yrotation Xrotation Zrotation
                      End Site
                      {
                        OFFSET -0.17666387530000027 -0.009072900100000503 0.005668185599999959
                      }
                    }
                  }
                }
                JOINT rightThumbProximal
                {
                  OFFSET -0.10997596379000074 -0.09577489355940072 0.16989765924999997
                  CHANNELS 3 Yrotation Xrotation Zrotation
                  JOINT rightThumbIntermediate
                  {
                    OFFSET -0.31036620999999986 -0.08229339117999834 0.15440884469999996
                    CHANNELS 3 Yrotation Xrotation Zrotation
                    JOINT rightThumbDistal
                    {
                      OFFSET -0.21631306399999906 -0.08825326400000111 0.018656797720000014
                      CHANNELS 3 Yrotation Xrotation Zrotation
                      End Site
                      {
                        OFFSET -0.21631306399999906 -0.08825326400000111 0.018656797720000014
                      }
                    }
                  }
                }
              }
            }
          }
        }
      }
    }
  }
}
MOTION
Frames: 7
Frame Time: 0.03333333333333333
5.366740723532839 -10.021630262118268 0.13416929642590777 0 -25.001125312038525 0 111.32306860141895 -26.640542283404244 -67.41577054251091 5.120165947883326 44.513455443760655 6.601043949427454 7.357474104224222 17.468727214135928 2.3107079158863932 0 0 0 -111.34605927344987 -26.624160244283843 67.42126470724254 -5.1478461080775455 44.5031835632588 -6.646281218265814 -7.34992120107999 17.461812168786786 -2.3090799680853644 0 0 0 0 -19.721405066662438 0 -0.6517314365829048 12.956114573094927 -0.28250074408110043 0 0 0 -4.4196303723311035 7.558235556041253 -12.312099765240875 -11.821661780851736 -42.12673262020915 -56.83999410918432 -13.671808797301168 33.64288767137566 5.086815440773588 -5.949944410226272 8.713389657124319 -54.44488775926283 0 0 0 0 0 0 0 0 0 0 0 0 0 0 0 0 0 0 0 0 0 0 0 0 0 0 0 0 0 0 0 0 0 0 0 0 0 0 0 0 0 0 0 0 0 13.546837494866459 18.995401243952998 14.740531359670154 0 12.371252131224443 0 0 0 0 0 0 0 0 0 0 4.754979217614786 7.3475654233734495 12.499173098780904 11.68712901184447 -41.85704064652667 56.464509593985134 14.012657439978383 33.61865128656588 -5.262786552313679 5.792746172370045 8.955750444613843 54.75080053851825 0 0 0 0 0 0 0 0 0 0 0 0 0 0 0 0 0 0 0 0 0 0 0 0 0 0 0 0 0 0 0 0 0 0 0 0 0 0 0 0 0 0 0 0 0
5.366740723532839 -10.021630262118268 0.14694718407051877 0 -25.001125312038525 0 111.32306860141895 -26.640542283404244 -67.41577054251091 5.120165947883326 44.513455443760655 6.601043949427454 7.357474104224222 17.468727214135928 2.3107079158863932 0 0 0 -111.34605927344987 -26.624160244283843 67.42126470724254 -5.1478461080775455 44.5031835632588 -6.646281218265814 -7.34992120107999 17.461812168786786 -2.3090799680853644 0 0 0 0 -19.02063862902947 0 -0.6475386186263367 11.192828706287644 -0.26212864761184346 0 0 0 -3.9468227994232516 8.469538061444045 -12.476582104146788 -11.792255285044506 -42.00234044301021 -57.1604443453072 -14.038291221355003 33.65117037592529 5.1324315410335375 -5.826398812372601 9.109564761467283 -54.70417474778917 0 0 0 0 0 0 0 0 0 0 0 0 0 0 0 0 0 0 0 0 0 0 0 0 0 0 0 0 0 0 0 0 0 0 0 0 0 0 0 0 0 0 0 0 0 13.419861341668621 17.38291901572387 14.33362387770942 0 10.744313881453435 0 0 0 0 0 0 0 0 0 0 4.266080739016137 8.24698758393278 12.653464297195427 11.661165395649379 -41.72958959431915 56.7880322908001 14.383965176305122 33.62665686558981 -5.313338355545177 5.6723289222625235 9.37091464626744 55.02570766257032 0 0 0 0 0 0 0 0 0 0 0 0 0 0 0 0 0 0 0 0 0 0 0 0 0 0 0 0 0 0 0 0 0 0 0 0 0 0 0 0 0 0 0 0 0
5.366740723532839 -10.021630262118268 0.15333626208895992 0 -25.001125312038525 0 111.32306860141895 -26.640542283404244 -67.41577054251091 5.120165947883326 44.513455443760655 6.601043949427454 7.357474104224222 17.468727214135928 2.3107079158863932 0 0 0 -111.34605927344987 -26.624160244283843 67.42126470724254 -5.1478461080775455 44.5031835632588 -6.646281218265814 -7.34992120107999 17.461812168786786 -2.3090799680853644 0 0 0 0 -18.67028167229392 0 -0.6456909048133721 10.311602533340716 -0.2520421902140485 0 0 0 -3.71102304750539 8.92560799704912 -12.556103545754866 -11.77792525186142 -41.94009546636843 -57.320391363345706 -14.221538770697746 33.655404339576734 5.155218465988774 -5.765256740318745 9.307850544891945 -54.83359701239875 0 0 0 0 0 0 0 0 0 0 0 0 0 0 0 0 0 0 0 0 0 0 0 0 0 0 0 0 0 0 0 0 0 0 0 0 0 0 0 0 0 0 0 0 0 13.361061024889871 16.57345128751649 14.132164569222377 0 9.928014337171048 0 0 0 0 0 0 0 0 0 0 4.022167231262151 8.697105010093667 12.727818930385997 11.648560736643544 -41.66581254647118 56.94952011686648 14.569625207042682 33.630762474135736 -5.338591581021565 5.61281864638528 9.578697681873784 55.16292193318109 0 0 0 0 0 0 0 0 0 0 0 0 0 0 0 0 0 0 0 0 0 0 0 0 0 0 0 0 0 0 0 0 0 0 0 0 0 0 0 0 0 0 0 0 0
5.366740723532839 -10.021630262118268 0.15972534010740108 0 -25.001125312038525 0 111.32306860141895 -26.640542283404244 -67.41577054251091 5.120165947883326 44.513455443760655 6.601043949427454 7.357474104224222 17.468727214135928 2.3107079158863932 0 0 0 -111.34605927344987 -26.624160244283843 67.42126470724254 -5.1478461080775455 44.5031835632588 -6.646281218265814 -7.349920313415364 17.461812168786786 -2.3090786266474703 0 0 0 0 -18.319954650878493 0 -0.6440065722238448 9.430796601459157 -0.24201675146716525 0 0 0 -3.4756045797855877 9.381923439829023 -12.633813280784047 -11.763847131707932 -41.87782862940673 -57.48016601932792 -14.404785584582807 33.659695953298716 5.177987839116235 -5.704540238264682 9.506265308934871 -54.96288207281245 0 0 0 0 0 0 0 0 0 0 0 0 0 0 0 0 0 0 0 0 0 0 0 0 0 0 0 0 0 0 0 0 0 0 0 0 0 0 0 0 0 0 0 0 0 13.305333361091321 15.761941998363195 13.931930838787977 0 9.10992792704652 0 0 0 0 0 0 0 0 0 0 3.778584209483865 9.147456164751746 12.800312522950684 11.63621318829946 -41.602034673131925 57.11083914330619 14.75528620007719 33.634933907210126 -5.363830882564292 5.553784819585047 9.786614888146996 55.3000120348306 0 0 0 0 0 0 0 0 0 0 0 0 0 0 0 0 0 0 0 0 0 0 0 0 0 0 0 0 0 0 0 0 0 0 0 0 0 0 0 0 0 0 0 0 0
5.366740723532839 -10.021630262118268 0.1725032277520121 0 -25.001125312038525 0 111.32306860141895 -26.640542283404244 -67.41577054251091 5.120165947883326 44.513455443760655 6.601043949427454 7.357474104224222 17.468727214135928 2.3107079158863932 0 0 0 -111.34605927344987 -26.624160244283843 67.42126470724254 -5.1478461080775455 44.5031835632588 -6.646281218265814 -7.34992120107999 17.461813958824088 -2.3090801916583468 0 0 0 0 -17.61940024124904 0 -0.6411178703819775 7.670843237062772 -0.22212918137114235 0 0 0 -3.0058229123449753 10.295166161522463 -12.783783696011483 -11.736423201939584 -41.75321102511333 -57.799170669233135 -14.771291090323139 33.66845626907687 5.223476474268757 -5.584366222116986 9.903466207432972 -55.22101429414403 0 0 0 0 0 0 0 0 0 0 0 0 0 0 0 0 0 0 0 0 0 0 0 0 0 0 0 0 0 0 0 0 0 0 0 0 0 0 0 0 0 0 0 0 0 13.202975208743762 14.133187172035168 13.534905261372549 0 7.468707711802174 0 0 0 0 0 0 0 0 0 0 3.2923361432011067 10.048750270087707 12.939710492195697 11.612275074701298 -41.47436675214548 57.4329028886299 15.126610634720938 33.643474285446636 -5.4142582535103365 5.43712996526391 10.202829089805803 55.57378854276004 0 0 0 0 0 0 0 0 0 0 0 0 0 0 0 0 0 0 0 0 0 0 0 0 0 0 0 0 0 0 0 0 0 0 0 0 0 0 0 0 0 0 0 0 0
5.366740723532839 -10.021630262118268 0.17889230577045326 0 -25.001123427951306 0 111.32306860141895 -26.640542283404244 -67.41577054251091 5.120165947883326 44.513455443760655 6.601043949427454 7.357474104224222 17.468727214135928 2.3107079158863932 0 0 0 -111.34605927344987 -26.624160244283843 67.42126470724254 -5.1478461080775455 44.5031835632588 -6.646281218265814 -7.34992120107999 17.461813958824088 -2.3090801916583468 0 0 0 0 -17.2691910820296 0 -0.6399095763336011 6.791908019500473 -0.21226026924425145 0 0 0 -2.7714271401819355 10.752042940348199 -12.856046301079514 -11.72309196159676 -41.69085112705454 -57.95838798712815 -14.9545435040362 33.672941403678905 5.2462000259370445 -5.5249113042335924 10.102245419696565 -55.34986417412703 0 0 0 0 0 0 0 0 0 0 0 0 0 0 0 0 0 0 0 0 0 0 0 0 0 0 0 0 0 0 0 0 0 0 0 0 0 0 0 0 0 0 0 0 0 13.156275513905834 13.316120534318214 13.337964968205046 0 6.645730107152205 0 0 0 0 0 0 0 0 0 0 3.0496328943788895 10.499637829874882 13.006610051918468 11.600687544597783 -41.410508641983945 57.593661960224985 15.312274068517846 33.64785555750388 -5.439448368594477 5.379507160289008 10.41111644495622 55.71046122701605 0 0 0 0 0 0 0 0 0 0 0 0 0 0 0 0 0 0 0 0 0 0 0 0 0 0 0 0 0 0 0 0 0 0 0 0 0 0 0 0 0 0 0 0 0
5.366740723532839 -10.021630262118268 0.18528138378889442 0 -25.001125312038525 0 111.32306860141895 -26.640542283404244 -67.41577054251091 5.120165947883326 44.513455443760655 6.601043949427454 7.357474104224222 17.468727214135928 2.3107079158863932 0 0 0 -111.34605927344987 -26.624160244283843 67.42126470724254 -5.1478461080775455 44.5031835632588 -6.646281218265814 -7.34992120107999 17.461812168786786 -2.3090799680853644 0 0 0 0 -16.91903215577672 0 -0.6388569047907428 5.913798210549831 -0.20243657284381483 0 0 0 -2.5373312623543742 11.209052070275103 -12.926486992728716 -11.709991123567027 -41.62848308916871 -58.11745154306499 -15.137793101939275 33.677471914341936 5.268901377434961 -5.465879297972746 10.301141504861711 -55.47857945206154 0 0 0 0 0 0 0 0 0 0 0 0 0 0 0 0 0 0 0 0 0 0 0 0 0 0 0 0 0 0 0 0 0 0 0 0 0 0 0 0 0 0 0 0 0 13.112528993111072 12.497383836518658 13.14198857115729 0 5.82128396635271 0 0 0 0 0 0 0 0 0 0 2.8071839016224356 10.950650903155925 13.07164217072224 11.58933937067704 -41.346622258972104 57.754255119540204 15.497936150647554 33.65230679726879 -5.464623028596919 5.322359644140991 10.619526511205896 55.847015956177 0 0 0 0 0 0 0 0 0 0 0 0 0 0 0 0 0 0 0 0 0 0 0 0 0 0 0 0 0 0 0 0 0 0 0 0 0 0 0 0 0 0 0 0 0
